<?xml version="1.0" encoding="UTF-8"?>
<svg xmlns="http://www.w3.org/2000/svg" version="1.1" width="100" height="100" viewBox="0 0 100 100"><rect x="0" y="0" width="100" height="100" fill="#ffffff"/><g transform="scale(2.703)"><g transform="translate(0,0)"><path fill-rule="evenodd" d="M10 0L10 2L11 2L11 0ZM12 0L12 1L13 1L13 2L12 2L12 4L13 4L13 3L14 3L14 4L19 4L19 5L18 5L18 8L16 8L16 7L17 7L17 6L16 6L16 5L15 5L15 6L14 6L14 8L16 8L16 9L19 9L19 10L18 10L18 12L16 12L16 11L17 11L17 10L15 10L15 9L12 9L12 7L13 7L13 5L11 5L11 6L10 6L10 4L11 4L11 3L8 3L8 4L9 4L9 5L8 5L8 7L9 7L9 8L6 8L6 9L5 9L5 8L0 8L0 9L5 9L5 10L6 10L6 11L8 11L8 12L9 12L9 13L10 13L10 14L9 14L9 15L8 15L8 16L5 16L5 15L7 15L7 14L5 14L5 15L4 15L4 14L3 14L3 13L4 13L4 10L3 10L3 13L2 13L2 11L1 11L1 13L0 13L0 15L1 15L1 13L2 13L2 16L3 16L3 17L1 17L1 16L0 16L0 17L1 17L1 19L2 19L2 20L3 20L3 21L2 21L2 23L4 23L4 25L3 25L3 24L0 24L0 29L1 29L1 26L5 26L5 27L3 27L3 28L2 28L2 29L3 29L3 28L4 28L4 29L5 29L5 27L7 27L7 28L6 28L6 29L8 29L8 31L9 31L9 32L8 32L8 37L9 37L9 33L10 33L10 37L11 37L11 33L12 33L12 34L13 34L13 35L12 35L12 37L13 37L13 36L14 36L14 37L15 37L15 36L14 36L14 35L16 35L16 36L17 36L17 35L16 35L16 34L17 34L17 33L18 33L18 36L19 36L19 37L20 37L20 36L22 36L22 34L25 34L25 33L26 33L26 35L27 35L27 36L29 36L29 37L31 37L31 36L32 36L32 34L33 34L33 35L34 35L34 34L35 34L35 35L36 35L36 36L33 36L33 37L37 37L37 32L33 32L33 30L34 30L34 31L37 31L37 26L34 26L34 25L35 25L35 24L37 24L37 22L36 22L36 21L37 21L37 18L34 18L34 16L32 16L32 17L31 17L31 16L30 16L30 15L32 15L32 14L31 14L31 12L25 12L25 11L26 11L26 10L27 10L27 11L28 11L28 10L29 10L29 11L31 11L31 10L32 10L32 8L31 8L31 9L30 9L30 8L29 8L29 9L28 9L28 10L27 10L27 8L28 8L28 7L29 7L29 4L28 4L28 3L29 3L29 2L28 2L28 1L26 1L26 0L21 0L21 2L20 2L20 4L19 4L19 1L20 1L20 0L19 0L19 1L18 1L18 0L17 0L17 1L16 1L16 0L15 0L15 1L14 1L14 0ZM8 1L8 2L9 2L9 1ZM22 1L22 3L21 3L21 4L20 4L20 5L19 5L19 9L20 9L20 10L19 10L19 13L20 13L20 14L17 14L17 13L14 13L14 12L15 12L15 11L14 11L14 12L13 12L13 13L12 13L12 11L13 11L13 10L12 10L12 9L11 9L11 8L10 8L10 9L6 9L6 10L9 10L9 12L10 12L10 11L11 11L11 14L13 14L13 15L12 15L12 17L9 17L9 16L8 16L8 17L5 17L5 16L4 16L4 18L2 18L2 19L4 19L4 23L5 23L5 25L6 25L6 26L7 26L7 25L6 25L6 24L9 24L9 22L10 22L10 21L11 21L11 22L13 22L13 23L12 23L12 25L11 25L11 24L10 24L10 25L9 25L9 26L8 26L8 27L9 27L9 26L10 26L10 28L9 28L9 29L11 29L11 30L13 30L13 31L12 31L12 33L15 33L15 34L16 34L16 33L15 33L15 32L14 32L14 31L15 31L15 30L16 30L16 29L17 29L17 32L18 32L18 31L19 31L19 36L20 36L20 35L21 35L21 34L20 34L20 31L23 31L23 32L21 32L21 33L23 33L23 32L26 32L26 33L27 33L27 31L28 31L28 30L27 30L27 26L28 26L28 28L29 28L29 26L31 26L31 27L33 27L33 28L36 28L36 27L33 27L33 25L34 25L34 24L35 24L35 21L34 21L34 22L33 22L33 21L32 21L32 20L31 20L31 21L32 21L32 22L33 22L33 25L32 25L32 24L31 24L31 23L30 23L30 22L29 22L29 24L26 24L26 22L28 22L28 21L29 21L29 20L30 20L30 18L31 18L31 19L32 19L32 18L33 18L33 17L32 17L32 18L31 18L31 17L30 17L30 16L28 16L28 17L24 17L24 16L26 16L26 15L27 15L27 14L28 14L28 15L30 15L30 14L28 14L28 13L26 13L26 14L23 14L23 11L24 11L24 10L21 10L21 9L24 9L24 5L21 5L21 4L25 4L25 8L27 8L27 7L28 7L28 6L27 6L27 5L28 5L28 4L27 4L27 5L26 5L26 3L27 3L27 2L26 2L26 1L25 1L25 3L23 3L23 2L24 2L24 1ZM14 2L14 3L16 3L16 2ZM17 2L17 3L18 3L18 2ZM9 6L9 7L10 7L10 6ZM11 6L11 7L12 7L12 6ZM15 6L15 7L16 7L16 6ZM20 6L20 7L21 7L21 8L20 8L20 9L21 9L21 8L22 8L22 7L23 7L23 6L22 6L22 7L21 7L21 6ZM26 6L26 7L27 7L27 6ZM33 8L33 12L32 12L32 13L33 13L33 15L34 15L34 13L37 13L37 10L36 10L36 8L35 8L35 9L34 9L34 8ZM10 9L10 10L11 10L11 9ZM25 9L25 10L26 10L26 9ZM35 10L35 11L34 11L34 12L35 12L35 11L36 11L36 10ZM21 11L21 12L22 12L22 11ZM6 12L6 13L7 13L7 12ZM24 12L24 13L25 13L25 12ZM15 14L15 15L14 15L14 16L15 16L15 17L12 17L12 18L13 18L13 19L12 19L12 21L13 21L13 20L14 20L14 21L16 21L16 22L15 22L15 23L14 23L14 24L15 24L15 25L12 25L12 26L13 26L13 27L12 27L12 29L13 29L13 28L14 28L14 29L15 29L15 28L17 28L17 29L18 29L18 28L17 28L17 25L18 25L18 27L19 27L19 26L20 26L20 27L21 27L21 28L23 28L23 26L24 26L24 27L26 27L26 26L27 26L27 25L26 25L26 24L25 24L25 23L24 23L24 25L23 25L23 26L21 26L21 25L20 25L20 24L22 24L22 22L24 22L24 21L18 21L18 20L17 20L17 19L19 19L19 18L20 18L20 20L23 20L23 19L22 19L22 18L24 18L24 19L26 19L26 20L25 20L25 21L28 21L28 19L29 19L29 17L28 17L28 18L27 18L27 19L26 19L26 18L24 18L24 17L21 17L21 16L23 16L23 14L21 14L21 16L20 16L20 15L18 15L18 16L19 16L19 18L17 18L17 16L15 16L15 15L16 15L16 14ZM35 14L35 15L36 15L36 16L35 16L35 17L36 17L36 16L37 16L37 14ZM15 17L15 18L16 18L16 17ZM20 17L20 18L21 18L21 17ZM6 18L6 19L5 19L5 21L7 21L7 22L5 22L5 23L8 23L8 20L11 20L11 18L10 18L10 19L8 19L8 20L6 20L6 19L7 19L7 18ZM14 19L14 20L15 20L15 19ZM33 19L33 20L36 20L36 19ZM0 20L0 21L1 21L1 20ZM16 20L16 21L17 21L17 22L16 22L16 23L15 23L15 24L16 24L16 25L15 25L15 26L16 26L16 25L17 25L17 24L18 24L18 25L19 25L19 24L20 24L20 22L18 22L18 21L17 21L17 20ZM29 24L29 25L28 25L28 26L29 26L29 25L31 25L31 26L32 26L32 25L31 25L31 24ZM24 25L24 26L25 26L25 25ZM14 27L14 28L15 28L15 27ZM19 28L19 30L23 30L23 29L20 29L20 28ZM24 28L24 29L26 29L26 28ZM29 29L29 32L32 32L32 29ZM34 29L34 30L35 30L35 29ZM9 30L9 31L10 31L10 32L11 32L11 31L10 31L10 30ZM24 30L24 31L25 31L25 30ZM30 30L30 31L31 31L31 30ZM28 33L28 34L27 34L27 35L28 35L28 34L29 34L29 36L30 36L30 35L31 35L31 34L32 34L32 33L31 33L31 34L29 34L29 33ZM25 36L25 37L26 37L26 36ZM0 0L0 7L7 7L7 0ZM1 1L1 6L6 6L6 1ZM2 2L2 5L5 5L5 2ZM30 0L30 7L37 7L37 0ZM31 1L31 6L36 6L36 1ZM32 2L32 5L35 5L35 2ZM0 30L0 37L7 37L7 30ZM1 31L1 36L6 36L6 31ZM2 32L2 35L5 35L5 32Z" fill="#000000"/></g></g></svg>
